<svg width="20" height="20" viewBox="0 0 20 20" fill="none" xmlns="http://www.w3.org/2000/svg">
<path fill-rule="evenodd" clip-rule="evenodd" d="M6.66666 3.33337C6.44565 3.33337 6.23369 3.42117 6.07741 3.57745C5.92113 3.73373 5.83333 3.94569 5.83333 4.16671V5.00004H4.99999C4.55797 5.00004 4.13404 5.17564 3.82148 5.4882C3.50892 5.80076 3.33333 6.22468 3.33333 6.66671V15C3.33333 15.4421 3.50892 15.866 3.82148 16.1786C4.13404 16.4911 4.55797 16.6667 4.99999 16.6667H15C15.442 16.6667 15.8659 16.4911 16.1785 16.1786C16.4911 15.866 16.6667 15.4421 16.6667 15V6.66671C16.6667 6.22468 16.4911 5.80076 16.1785 5.4882C15.8659 5.17564 15.442 5.00004 15 5.00004H14.1667V4.16671C14.1667 3.94569 14.0789 3.73373 13.9226 3.57745C13.7663 3.42117 13.5543 3.33337 13.3333 3.33337C13.1123 3.33337 12.9004 3.42117 12.7441 3.57745C12.5878 3.73373 12.5 3.94569 12.5 4.16671V5.00004H7.49999V4.16671C7.49999 3.94569 7.4122 3.73373 7.25592 3.57745C7.09964 3.42117 6.88768 3.33337 6.66666 3.33337ZM6.66666 7.50004C6.44565 7.50004 6.23369 7.58784 6.07741 7.74412C5.92113 7.9004 5.83333 8.11236 5.83333 8.33337C5.83333 8.55439 5.92113 8.76635 6.07741 8.92263C6.23369 9.07891 6.44565 9.16671 6.66666 9.16671H13.3333C13.5543 9.16671 13.7663 9.07891 13.9226 8.92263C14.0789 8.76635 14.1667 8.55439 14.1667 8.33337C14.1667 8.11236 14.0789 7.9004 13.9226 7.74412C13.7663 7.58784 13.5543 7.50004 13.3333 7.50004H6.66666Z" fill="#0E73F6"/>
</svg>
