<svg width="20" height="20" viewBox="0 0 20 20" fill="none" xmlns="http://www.w3.org/2000/svg">
<path d="M16.6667 2.50004H15.8333V1.66671C15.8333 1.20837 15.4583 0.833374 15 0.833374C14.5417 0.833374 14.1667 1.20837 14.1667 1.66671V2.50004H5.83333V1.66671C5.83333 1.20837 5.45833 0.833374 5 0.833374C4.54166 0.833374 4.16666 1.20837 4.16666 1.66671V2.50004H3.33333C2.41666 2.50004 1.66666 3.25004 1.66666 4.16671V17.5C1.66666 18.4167 2.41666 19.1667 3.33333 19.1667H16.6667C17.5833 19.1667 18.3333 18.4167 18.3333 17.5V4.16671C18.3333 3.25004 17.5833 2.50004 16.6667 2.50004ZM15.8333 17.5H4.16666C3.70833 17.5 3.33333 17.125 3.33333 16.6667V6.66671H16.6667V16.6667C16.6667 17.125 16.2917 17.5 15.8333 17.5Z" fill="#84919A"/>
</svg>
