<svg width="44" height="37" viewBox="0 0 44 37" fill="none" xmlns="http://www.w3.org/2000/svg">
<path d="M0 4V12C0 14.2091 1.79086 16 4 16H21.8816C25.1994 16 27.0749 12.1935 25.0533 9.56273L18.9058 1.56273C18.1487 0.57746 16.9767 0 15.7341 0H4C1.79086 0 0 1.79086 0 4Z" fill="#027AFF"/>
<path d="M4 37H40C42.2091 37 44 35.2091 44 33V9C44 6.79086 42.2091 5 40 5H27.0287C26.0443 5 25.0944 5.36302 24.3609 6.01958L20.0957 9.83741C19.3884 10.4705 18.4789 10.8315 17.5299 10.8557L1.68955 11.2599C0.749546 11.2839 0 12.0528 0 12.9931V33C0 35.2091 1.79086 37 4 37Z" fill="#479DFF"/>
<path d="M22 16L23.3471 20.1459H27.7063L24.1796 22.7082L25.5267 26.8541L22 24.2918L18.4733 26.8541L19.8204 22.7082L16.2937 20.1459H20.6529L22 16Z" fill="white"/>
</svg>
