<svg width="44" height="37" viewBox="0 0 44 37" fill="none" xmlns="http://www.w3.org/2000/svg">
<path d="M0 4V12C0 14.2091 1.79086 16 4 16H21.8816C25.1994 16 27.0749 12.1935 25.0533 9.56273L18.9058 1.56273C18.1487 0.57746 16.9767 0 15.7341 0H4C1.79086 0 0 1.79086 0 4Z" fill="#9155F3"/>
<path d="M4 37H40C42.2091 37 44 35.2091 44 33V9C44 6.79086 42.2091 5 40 5H27.0287C26.0443 5 25.0944 5.36302 24.3609 6.01958L20.0957 9.83741C19.3884 10.4705 18.4789 10.8315 17.5299 10.8557L1.68955 11.2599C0.749546 11.2839 0 12.0528 0 12.9931V33C0 35.2091 1.79086 37 4 37Z" fill="#A777F4"/>
<rect x="17" y="19" width="10" height="8" rx="1" stroke="white" stroke-width="2"/>
<rect x="18" y="20" width="8" height="1" fill="white"/>
<rect x="18" y="16" width="3" height="3" fill="white"/>
<rect x="23" y="16" width="3" height="3" fill="white"/>
</svg>
