<svg width="44" height="37" viewBox="0 0 44 37" fill="none" xmlns="http://www.w3.org/2000/svg">
<path d="M0 4V12C0 14.2091 1.79086 16 4 16H21.8816C25.1994 16 27.0749 12.1935 25.0533 9.56273L18.9058 1.56273C18.1487 0.57746 16.9767 0 15.7341 0H4C1.79086 0 0 1.79086 0 4Z" fill="#EAAE15"/>
<path d="M4 37H40C42.2091 37 44 35.2091 44 33V9C44 6.79086 42.2091 5 40 5H27.0287C26.0443 5 25.0944 5.36302 24.3609 6.01958L20.0957 9.83741C19.3884 10.4705 18.4789 10.8315 17.5299 10.8557L1.68955 11.2599C0.749546 11.2839 0 12.0528 0 12.9931V33C0 35.2091 1.79086 37 4 37Z" fill="#F4C345"/>
<circle cx="22" cy="20" r="3" fill="white"/>
<path d="M17 26C17 24.8954 17.8954 24 19 24H25C26.1046 24 27 24.8954 27 26V29H17V26Z" fill="white"/>
</svg>
